# xmcd CD database file
#
# Track frame offsets:
#	150
#	21450
#	40575
#	63300
#
# Disc length: 1125 seconds
#
# Revision: 0
# Processed by: cddbd v1.5PL3 Copyright (c) Steve Scherf et al.
# Submitted via: CDex 1.51
#
DISCID=2c046304
DTITLE=松浦亜弥 - 風信子
DYEAR=2004
DGENRE=JPop
TTITLE0=風信子
TTITLE1=逢いたくて
TTITLE2=初恋
TTITLE3=風信子 〜Instrumental〜
EXTD=YEAR: 2004
EXTT0=
EXTT1=
EXTT2=
EXTT3=
PLAYORDER=
